<svg xmlns="http://www.w3.org/2000/svg" width="46.141" height="58.489" viewBox="0 0 46.141 58.489"><defs><style>.a,.b{fill:#fff;}.b{fill-rule:evenodd;}</style></defs><g transform="translate(16.467)"><path class="a" d="M777.863,7067.179H759.978a3.171,3.171,0,0,1-3.168-3.167v-43.1a3.172,3.172,0,0,1,3.168-3.167h17.885a3.171,3.171,0,0,1,3.167,3.167v43.1A3.17,3.17,0,0,1,777.863,7067.179Z" transform="translate(-756.359 -7017.297)"/><path d="M777.7,7067.463H759.811a3.63,3.63,0,0,1-3.619-3.619v-43.1a3.629,3.629,0,0,1,3.618-3.619H777.7a3.63,3.63,0,0,1,3.619,3.618v43.1A3.63,3.63,0,0,1,777.7,7067.463Zm-17.886-49.43a2.723,2.723,0,0,0-2.716,2.715v43.1a2.723,2.723,0,0,0,2.716,2.714H777.7a2.724,2.724,0,0,0,2.716-2.715v-43.1a2.723,2.723,0,0,0-2.716-2.714Z" transform="translate(-756.192 -7017.128)"/></g><g transform="translate(19.127 6.022)"><rect width="18.91" height="36.712" transform="translate(0.452 0.452)"/><path d="M779.2,7062.995h-18.91a.452.452,0,0,1-.451-.451v-36.712a.452.452,0,0,1,.451-.452H779.2a.452.452,0,0,1,.452.452v36.712A.452.452,0,0,1,779.2,7062.995Zm-18.458-.9h18.007v-35.81H760.738Z" transform="translate(-759.835 -7025.379)"/><g transform="translate(7.877 38.458)"><path class="a" d="M771.243,7080.218a1.542,1.542,0,1,1,1.542,1.541h0a1.537,1.537,0,0,1-1.542-1.533Z" transform="translate(-770.792 -7078.225)"/><path d="M772.612,7082.044a1.988,1.988,0,0,1-1.986-1.983v-.01a1.993,1.993,0,1,1,1.993,1.993Zm.006-3.083a1.092,1.092,0,0,0-1.09,1.09v.008a1.08,1.08,0,0,0,.32.766.956.956,0,0,0,.769.316,1.09,1.09,0,0,0,0-2.18Z" transform="translate(-770.625 -7078.058)"/></g></g><g transform="translate(0 20.392)"><path class="a" d="M755.489,7082.829a11.458,11.458,0,0,1,1.421-4.336c.086.012.52.088.52.088a8.258,8.258,0,0,0,5.3-1.221,22.085,22.085,0,0,0,3.972-2.638H753.863a3.172,3.172,0,0,1-3.168-3.171v-.265h0v-.326h0V7055.57a12.943,12.943,0,0,0,2.252-3.6l.109-.229.144.192a4.509,4.509,0,0,0,3.361,1.842c.2.013.421.024.626.024,2.159,0,3.517-.843,3.747-1.686.172-.6-.229-1.229-1.108-1.759h0l-2.962-2.168c-1.024-.747-2.035-1.495-3.06-2.24a3.768,3.768,0,0,0-1.325-.266,2.806,2.806,0,0,0-1.686.58c-.024.036-.06.085-.1.131h0a.169.169,0,0,0-.036.048,69.22,69.22,0,0,1-7.311,7.4,4.762,4.762,0,0,0-1.782,3.553c.228,3.385-.506,6.432-.18,9.793,0,1.986-3.6,9.527-7.131,15.694" transform="translate(-733.802 -7045.229)"/><path d="M734.086,7083.159a.452.452,0,0,1-.391-.677c3.9-6.812,7.071-13.752,7.071-15.469a30.158,30.158,0,0,1,.071-5.14,32.923,32.923,0,0,0,.11-4.623,5.227,5.227,0,0,1,1.951-3.936,69.147,69.147,0,0,0,7.242-7.325.693.693,0,0,1,.081-.1c-.02.016.01-.024.028-.051a.465.465,0,0,1,.1-.109,3.28,3.28,0,0,1,1.958-.671,4.151,4.151,0,0,1,1.5.3.416.416,0,0,1,.1.054l6.023,4.409c1.42.851,1.41,1.775,1.276,2.246-.263.967-1.684,2.014-4.181,2.014-.213,0-.439-.012-.653-.025a4.946,4.946,0,0,1-3.37-1.624,13.388,13.388,0,0,1-2.016,3.137v15.813a2.723,2.723,0,0,0,2.716,2.72h12.837a.452.452,0,0,1,.289.8,22.574,22.574,0,0,1-4.054,2.692,8.669,8.669,0,0,1-5.558,1.268l-.264-.045a14.924,14.924,0,0,0-1.18,3.93.451.451,0,1,1-.886-.172c.477-2.454.946-3.853,1.517-4.539a.452.452,0,0,1,.41-.158c.088.012.535.091.535.091a7.819,7.819,0,0,0,4.994-1.167,21.849,21.849,0,0,0,2.888-1.794H753.7a3.629,3.629,0,0,1-3.62-3.623V7055.4a.454.454,0,0,1,.113-.3,12.493,12.493,0,0,0,2.173-3.476l.118-.25a.451.451,0,0,1,.77-.076l.145.193a4.052,4.052,0,0,0,3.027,1.662c.194.013.4.025.6.025,2.03,0,3.158-.792,3.31-1.354.156-.545-.581-1.058-.9-1.253l-6.008-4.4a3.307,3.307,0,0,0-1.113-.213,2.361,2.361,0,0,0-1.351.445c-.022.03-.047.064-.072.1a.224.224,0,0,1-.045.06,70.009,70.009,0,0,1-7.359,7.443,4.321,4.321,0,0,0-1.627,3.229,33.209,33.209,0,0,1-.112,4.7,29.3,29.3,0,0,0-.071,5.032c0,2.143-3.654,9.786-7.188,15.963A.454.454,0,0,1,734.086,7083.159Z" transform="translate(-733.635 -7045.062)"/><g transform="translate(35.122 7.903)"><path class="b" d="M783.676,7058.069l2.517-1.3a2.434,2.434,0,0,1,3.264,1.048h0a2.446,2.446,0,0,1-1.048,3.264l-2.529,1.289a2.418,2.418,0,0,1-3.252-1.048h0A2.418,2.418,0,0,1,783.676,7058.069Z" transform="translate(-781.912 -7056.054)"/><path d="M784.618,7062.92a2.867,2.867,0,0,1-1.314-5.419l2.516-1.3a2.876,2.876,0,0,1,2.633,5.114l-2.534,1.291A2.843,2.843,0,0,1,784.618,7062.92Zm2.508-6.13a1.957,1.957,0,0,0-.894.215l-2.515,1.3h0a1.964,1.964,0,1,0,1.792,3.5l2.53-1.288a1.97,1.97,0,0,0-.912-3.722Zm-3.616,1.113h0Z" transform="translate(-781.745 -7055.888)"/></g><g transform="translate(35.127 12.832)"><path class="b" d="M786.246,7063.517a2.43,2.43,0,0,1,3.252,1.049h0a2.436,2.436,0,0,1-1.048,3.265l-2.529,1.287a2.418,2.418,0,0,1-3.252-1.048h0a2.091,2.091,0,0,1,.892-2.994Z" transform="translate(-781.919 -7062.806)"/><path d="M784.658,7069.669a2.872,2.872,0,0,1-2.558-1.559,2.539,2.539,0,0,1,1.085-3.6l2.668-1.549.023-.012a2.873,2.873,0,0,1,2.616,5.117l-2.532,1.289A2.849,2.849,0,0,1,784.658,7069.669Zm1.636-5.919-2.674,1.551a1.653,1.653,0,0,0-.715,2.4,1.967,1.967,0,0,0,2.643.849l2.53-1.288a1.969,1.969,0,0,0-1.783-3.512Z" transform="translate(-781.752 -7062.64)"/></g><g transform="translate(36.421 17.86)"><path class="b" d="M785.264,7071.495l2.192-1.123a2.1,2.1,0,0,1,2.816.906h0a2.1,2.1,0,0,1-.9,2.818l-2.192,1.123a2.091,2.091,0,0,1-2.814-.906l0-.009h0a2.108,2.108,0,0,1,.9-2.807Z" transform="translate(-783.689 -7069.692)"/><path d="M786.06,7075.736a2.565,2.565,0,0,1-.782-.124,2.525,2.525,0,0,1-1.483-1.26,2.575,2.575,0,0,1,1.062-3.406l.035-.021,2.192-1.122a2.545,2.545,0,0,1,2.326,4.526l-2.194,1.125A2.534,2.534,0,0,1,786.06,7075.736Zm-.728-4.021-.025.016a1.664,1.664,0,0,0-.71,2.205,1.639,1.639,0,0,0,2.208.715l2.192-1.123a1.642,1.642,0,0,0-1.5-2.92Zm-.237-.384h0Z" transform="translate(-783.524 -7069.526)"/></g></g><g transform="translate(40.688 20.054)"><path class="b" d="M794.227,7046.542a3.64,3.64,0,0,0-4.058-1.108l-.18.073v6.7l2.6-1.409C794.01,7050.022,795.094,7047.9,794.227,7046.542Z" transform="translate(-789.536 -7044.765)"/><path d="M789.821,7052.489a.445.445,0,0,1-.231-.063.452.452,0,0,1-.221-.388v-6.7a.45.45,0,0,1,.282-.418l.181-.073a4.1,4.1,0,0,1,4.576,1.24.424.424,0,0,1,.032.044,2.722,2.722,0,0,1,.27,2.194,4.46,4.46,0,0,1-2.073,2.7l-2.6,1.41A.447.447,0,0,1,789.821,7052.489Zm.451-6.836v5.625l1.935-1.047a3.57,3.57,0,0,0,1.629-2.129,1.889,1.889,0,0,0-.144-1.46A3.193,3.193,0,0,0,790.272,7045.653Z" transform="translate(-789.369 -7044.6)"/></g></svg>