<svg xmlns="http://www.w3.org/2000/svg" width="72.144" height="44.148" viewBox="0 0 72.144 44.148"><defs><style>.a{fill:#fff;}</style></defs><g transform="translate(0 0)"><path d="M456.6,7056.493a5.347,5.347,0,0,0-5.167-5.51l-6.506-.209a14.344,14.344,0,1,0-19.508-.628l-9.859-.318a14.339,14.339,0,1,0-17.8,1.866c-.044.02-.084.042-.128.063l-7.418-.583a5.341,5.341,0,0,0-1.8,10.481,16.744,16.744,0,0,0-1.014,5.724v1.472a.464.464,0,0,0,.464.463h29.721a.461.461,0,0,0,.293.1h35.266a.463.463,0,0,0,.464-.464v-1.229a16.745,16.745,0,0,0-1.188-6.192A5.349,5.349,0,0,0,456.6,7056.493Zm-67.834,4.281a4.406,4.406,0,0,1,1.38-8.676l5.947.468A17.492,17.492,0,0,0,388.766,7060.774Zm63.916,6.95v.766H422.1v-1.112c0-.094,0-.22-.006-.353,0-.05,0-.106-.006-.162,0-.093-.009-.2-.015-.307,0-.081-.009-.161-.015-.251-.007-.109-.02-.233-.031-.354-.017-.191-.038-.394-.065-.609-.008-.068-.017-.136-.026-.206-.023-.173-.049-.352-.079-.538,0-.026-.01-.054-.013-.08a20.627,20.627,0,0,0-.456-2.084l-.008-.03a18.265,18.265,0,0,0-2.744-5.812c2.305-2.451,6.408-3.266,9.693-3.915l.569-.112a.464.464,0,0,0,.134-.861,13.434,13.434,0,0,1-3.162-2.437l-.145-.15c-.3-.319-.582-.649-.846-.995-.029-.039-.056-.078-.086-.118-.251-.335-.488-.68-.706-1.037-.022-.035-.046-.07-.068-.105-.222-.369-.422-.75-.608-1.138-.034-.072-.068-.145-.1-.218-.178-.392-.342-.79-.482-1.2-.012-.035-.021-.071-.032-.105-.13-.387-.239-.782-.333-1.182-.017-.072-.036-.144-.052-.216-.09-.413-.16-.833-.21-1.257-.011-.087-.018-.174-.026-.259a13.218,13.218,0,0,1-.074-1.328,13.417,13.417,0,0,1,26.834,0c0,.287-.01.573-.029.857-.007.094-.017.187-.026.28-.016.191-.034.381-.058.569-.014.108-.032.218-.049.326-.026.173-.055.343-.087.512-.023.114-.046.226-.071.338-.036.164-.076.328-.118.49-.029.111-.059.223-.091.334-.046.162-.1.323-.151.483-.034.106-.069.212-.107.317-.061.17-.127.338-.194.5-.038.093-.072.186-.111.276-.1.225-.2.446-.308.664-.016.032-.029.063-.045.094-.123.245-.255.485-.393.721-.051.086-.107.169-.158.255-.093.15-.187.3-.286.449-.065.1-.132.189-.2.283-.095.133-.19.266-.289.395-.074.1-.149.191-.225.285-.1.124-.2.246-.306.365-.08.092-.161.184-.244.274-.109.119-.221.234-.334.349-.083.086-.167.171-.254.254-.123.119-.251.232-.379.346-.082.073-.162.148-.246.219-.17.145-.345.283-.522.417-.047.036-.092.074-.139.109h0a13.793,13.793,0,0,1-1.513.977.464.464,0,0,0,.054.838,16.644,16.644,0,0,1,9.922,10.515c.019.062.034.125.052.187q.172.584.3,1.183c.028.128.053.257.077.389q.1.524.16,1.061c.016.134.035.267.047.4C452.653,7066.756,452.682,7067.236,452.682,7067.724Z" transform="translate(-384.458 -7025.27)"/><path class="a" d="M390.455,7061.021a4.405,4.405,0,0,0-1.38,8.676c.044-.1.1-.2.145-.3.134-.3.269-.593.421-.883.06-.114.128-.224.19-.336a17.1,17.1,0,0,1,2.1-3c.037-.042.07-.088.107-.129.209-.234.434-.456.656-.68.126-.127.248-.258.378-.38.211-.2.432-.389.653-.579.157-.135.312-.271.474-.4.22-.176.447-.344.677-.509.178-.129.356-.257.539-.38.232-.155.468-.3.708-.45.094-.057.182-.121.277-.176Z" transform="translate(-384.767 -7034.192)"/><path class="a" d="M433.466,7067.8v1.112h30.586v-.767a16.383,16.383,0,0,0-10.629-15.181.465.465,0,0,1-.054-.838,13.417,13.417,0,1,0-12.972,0,.464.464,0,0,1-.134.861l-.569.113c-3.285.648-7.388,1.464-9.693,3.914A19.4,19.4,0,0,1,433.466,7067.8Z" transform="translate(-395.828 -7025.693)"/><path d="M448.473,7052.176c-5.289,0-6.076-3.855-6.084-3.9a.464.464,0,1,1,.913-.171c.025.125.677,3.138,5.171,3.138s5.146-3.013,5.172-3.141a.464.464,0,0,1,.912.174C454.549,7048.321,453.762,7052.176,448.473,7052.176Z" transform="translate(-398.919 -7030.877)"/><path class="a" d="M412.473,7051.715c-5.289,0-6.076-3.856-6.084-3.9a.464.464,0,0,1,.912-.174c.027.139.684,3.141,5.171,3.141s5.146-3.013,5.172-3.141a.464.464,0,0,1,.912.174C418.549,7047.858,417.762,7051.715,412.473,7051.715Z" transform="translate(-389.931 -7030.762)"/></g></svg>