<svg xmlns="http://www.w3.org/2000/svg" width="53.336" height="49.691" viewBox="0 0 53.336 49.691"><defs><style>.a{fill:#fff;}</style></defs><path class="a" d="M258.045,7068.975a23.236,23.236,0,0,1-3.7-.3,22.288,22.288,0,1,0,19.108-40.2,23.174,23.174,0,0,1-15.407,40.5Z" transform="translate(-234.858 -7022.599)"/><path d="M263.89,7024.557a23.179,23.179,0,1,0-19.611,41.289,23.179,23.179,0,1,0,19.611-41.289Zm-6.324,44.6a22.156,22.156,0,0,1-10.663-2.721,23.174,23.174,0,0,0,19.108-40.2,22.289,22.289,0,0,1-8.445,42.917Z" transform="translate(-227.417 -7020.355)"/><path class="a" d="M264.134,7046.14a5.372,5.372,0,0,1-1.99,4.492,8.95,8.95,0,0,1-5.64,1.563h-3.123v8.347h-1.41v-20.207h4.948Q264.134,7040.334,264.134,7046.14Zm-10.753,4.838h2.778q3.414,0,4.934-1.127a4.245,4.245,0,0,0,1.52-3.655,4.13,4.13,0,0,0-1.437-3.463,7.191,7.191,0,0,0-4.451-1.125h-3.345Z" transform="translate(-234.202 -7025.875)"/></svg>