<svg xmlns="http://www.w3.org/2000/svg" width="43.678" height="44.89" viewBox="0 0 43.678 44.89"><defs><style>.a{fill:#fff;}</style></defs><g transform="translate(0 4.065)"><path class="a" d="M605.17,7029.534v9.272H593.044v9.272h-9.272v9.272H574.5v12.125h42.795v-39.942Z" transform="translate(-574.058 -7029.093)"/><path d="M617.117,7069.741H574.323a.442.442,0,0,1-.442-.441v-12.125a.442.442,0,0,1,.442-.441h8.831V7047.9a.441.441,0,0,1,.441-.441h8.831v-8.832a.441.441,0,0,1,.442-.441h11.684v-8.83a.442.442,0,0,1,.442-.443h12.125a.442.442,0,0,1,.442.443V7069.3A.442.442,0,0,1,617.117,7069.741Zm-42.353-.883h41.912V7029.8H605.434v8.831a.442.442,0,0,1-.442.442H593.308v8.831a.442.442,0,0,1-.441.442h-8.831v8.831a.441.441,0,0,1-.442.441h-8.831Z" transform="translate(-573.881 -7028.916)"/></g><path d="M592.756,7023.483a.88.88,0,0,0-.716-.261l-5.513.591a.889.889,0,0,0,.189,1.767l3.011-.323-13.9,13.9a.888.888,0,0,0,1.255,1.256l13.9-13.9-.323,3.011a.885.885,0,0,0,.255.724.906.906,0,0,0,.539.255l.089,0a.887.887,0,0,0,.883-.794l.591-5.514A.88.88,0,0,0,592.756,7023.483Z" transform="translate(-574.364 -7023.217)"/></svg>